<svg xmlns="http://www.w3.org/2000/svg" width="46" height="42" style=""><rect id="backgroundrect" width="100%" height="100%" x="0" y="0" fill="none" stroke="none" class="" style=""/><g class="currentLayer" style=""><title>Layer 1</title><path fill="none" stroke="#318ade" stroke-linejoin="round" stroke-width="3" d="M37.45822739601135,14.462531924247742 h-0.3200000000000003 a10.49,10.49 0 0 0 -19.11,-8 a7,7 0 0 0 -10.57,6 a7.21,7.21 0 0 0 0.1,1.1400000000000001 A7.5,7.5 0 0 0 8.958227396011353,28.46253192424774 a4.19,4.19 0 0 0 0.5,0 h28 a7,7 0 0 0 0,-14 z" id="svg_1" class=""/><g id="svg_2" class=""><path fill="none" stroke="#63778a" stroke-linecap="round" stroke-miterlimit="10" stroke-width="3" d="M7.9582273960113525,40.96253192424774 h30 " id="svg_3"/><animateTransform attributeName="transform" begin="0s" dur="5s" repeatCount="indefinite" type="translate" values="-4 0; 4 0; -4 0" transform="translate(-0.000004649162292480469,1.1920928955078125e-7) translate(-2.384185791015625e-7,0.000003814697265625) translate(-0.000012993812561035156,0.0000035762786865234375) translate(-9.041754722595215,-17.0374755859375) "/></g><g id="svg_4" class=""><path fill="none" stroke="#63778a" stroke-linecap="round" stroke-miterlimit="10" stroke-width="3" d="M7.9582273960113525,34.96253192424774 h30 " id="svg_5"/><animateTransform attributeName="transform" begin="-4s" dur="5s" repeatCount="indefinite" type="translate" values="-4 0; 4 0; -4 0" transform="translate(-0.000004649162292480469,1.1920928955078125e-7) translate(-2.384185791015625e-7,0.000003814697265625) translate(-0.000012993812561035156,0.0000035762786865234375) translate(-9.041754722595215,-17.0374755859375) "/></g></g></svg>